<svg xmlns="http://www.w3.org/2000/svg" fill="none" viewBox="-1.565 -1.565 50 50" id="Navigation-Menu-1--Streamline-Ultimate" height="50" width="50">
  <desc>
    Navigation Menu 1 Streamline Icon: https://streamlinehq.com
  </desc>
  <path stroke="#000000" stroke-linecap="round" stroke-linejoin="round" d="M4.3940625 1.4706478016666669h38.081875000000004s2.9293750000000003 0 2.9293750000000003 2.9293710941666666v2.9293750000000003s0 2.9293750000000003 -2.9293750000000003 2.9293750000000003H4.3940625s-2.9293750000000003 0 -2.9293750000000003 -2.9293750000000003v-2.9293750000000003S1.4646875000000001 1.4706478016666669 4.3940625 1.4706478016666669Z" stroke-width="3.13"></path>
  <path stroke="#000000" stroke-linecap="round" stroke-linejoin="round" d="M4.3940625 19.046893895833335h38.081875000000004s2.9293750000000003 0 2.9293750000000003 2.929472645833334v2.9293750000000003s0 2.9293750000000003 -2.9293750000000003 2.9293750000000003H4.3940625s-2.9293750000000003 0 -2.9293750000000003 -2.9293750000000003v-2.9293750000000003s0 -2.929472645833334 2.9293750000000003 -2.929472645833334Z" stroke-width="3.13"></path>
  <path stroke="#000000" stroke-linecap="round" stroke-linejoin="round" d="M4.3940625 36.62324154166667h38.081875000000004s2.9293750000000003 0 2.9293750000000003 2.9293750000000003v2.9293750000000003s0 2.9293750000000003 -2.9293750000000003 2.9293750000000003H4.3940625s-2.9293750000000003 0 -2.9293750000000003 -2.9293750000000003v-2.9293750000000003s0 -2.9293750000000003 2.9293750000000003 -2.9293750000000003Z" stroke-width="3.13"></path>
</svg>