<svg viewBox="-1.565 -1.565 50 50" fill="none" xmlns="http://www.w3.org/2000/svg" id="Cart--Streamline-Iconoir" height="50" width="50">
  <desc>
    Cart Streamline Icon: https://streamlinehq.com
  </desc>
  <path d="M39.457900083333335 44.798931875c1.769928375 0 3.2047362500000003 -1.4348078750000002 3.2047362500000003 -3.2045409583333337s-1.4348078750000002 -3.2045409583333337 -3.2047362500000003 -3.2045409583333337 -3.2045409583333337 1.4348078750000002 -3.2045409583333337 3.2045409583333337 1.4348078750000002 3.2045409583333337 3.2045409583333337 3.2045409583333337Z" fill="#ffffff" stroke="#ffffff" stroke-linecap="round" stroke-linejoin="round" stroke-width="3.13"></path>
  <path d="M18.093968208333337 44.798931875c1.7697330833333336 0 3.2045409583333337 -1.4348078750000002 3.2045409583333337 -3.2045409583333337s-1.4348078750000002 -3.2045409583333337 -3.2045409583333337 -3.2045409583333337 -3.2045409583333337 1.4348078750000002 -3.2045409583333337 3.2045409583333337 1.4346125833333336 3.2045409583333337 3.2045409583333337 3.2045409583333337Z" fill="#ffffff" stroke="#ffffff" stroke-linecap="round" stroke-linejoin="round" stroke-width="3.13"></path>
  <path d="M8.480150041666667 6.343854500000001h36.31878183333334l-4.272786375 23.500422708333335H12.752936416666667L8.480150041666667 6.343854500000001Zm0 0C8.124133333333335 4.919592375000001 6.343854500000001 2.071068125 2.071068125 2.071068125" stroke="#ffffff" stroke-linecap="round" stroke-linejoin="round" stroke-width="3.13"></path>
  <path d="M40.526145500000005 29.844277208333338H8.973261500000001c-3.8120933333333338 0 -5.83414325 1.6689625833333335 -5.83414325 4.272786375s2.022049916666667 4.272786375 5.83414325 4.272786375h30.484638583333336" stroke="#ffffff" stroke-linecap="round" stroke-linejoin="round" stroke-width="3.13"></path>
</svg>