<svg xmlns="http://www.w3.org/2000/svg" fill="none" viewBox="0 0 50 50" height="50" width="50">
  <g id="Reset-Settings">
    <path id="Union" fill="#000000" d="M37.50208333333334 27.083333333333336c5.752083333333334 0.0010416666666666669 10.416666666666668 4.664375000000001 10.416666666666668 10.416666666666668s-4.664583333333334 10.415625000000002 -10.416666666666668 10.416666666666668c-4.271041666666667 0 -7.940208333333334 -2.571875 -9.547916666666667 -6.25h4.897083333333334c1.1441666666666668 1.2758333333333336 2.8020833333333335 2.0833333333333335 4.650833333333334 2.0833333333333335 3.4508333333333336 -0.0010416666666666669 6.25 -2.79875 6.25 -6.25s-2.799166666666667 -6.248958333333333 -6.25 -6.25c-1.9925000000000002 0 -3.7625 0.935625 -4.905208333333333 2.388541666666667l2.0833333333333335 2.0833333333333335c0.6560416666666667 0.65625 0.19145833333333334 1.7779166666666668 -0.7364583333333333 1.7781250000000002H27.083333333333336c-0.5752083333333334 0 -1.0416666666666667 -0.46645833333333336 -1.0416666666666667 -1.0416666666666667v-6.8604166666666675c0.00020833333333333335 -0.9279166666666667 1.121875 -1.3925 1.7781250000000002 -0.7364583333333333l1.8127083333333334 1.8127083333333334C31.542083333333334 28.474375000000002 34.36 27.083333333333336 37.50208333333334 27.083333333333336M14.583333333333334 31.250000000000004H10.416666666666668v-4.166666666666667H4.166666666666667v-4.166666666666667h6.25V18.75h4.166666666666667zm9.375 -4.166666666666667H18.75v-4.166666666666667h5.208333333333334zM31.250000000000004 8.333333333333334h6.25v4.166666666666667h-6.25v4.166666666666667h-4.166666666666667V4.166666666666667h4.166666666666667zm-8.333333333333334 4.166666666666667H4.166666666666667V8.333333333333334h18.75z" stroke-width="2.0833"></path>
  </g>
</svg>