<svg xmlns="http://www.w3.org/2000/svg" viewBox="0 0 50 50" fill="#000000" id="Guitar--Streamline-Phosphor" height="50" width="50">
  <desc>
    Guitar Streamline Icon: https://streamlinehq.com
  </desc>
  <path d="M49.0283203125 9.0028515625 40.99556640625 0.97009765625c-0.8749804687499999 -0.8741992187500001 -2.368203125 -0.4733984375 -2.68779296875 0.7214648437500001 -0.1483203125 0.55455078125 0.01044921875 1.1460937500000001 0.41654296874999996 1.55181640625l0.46990234375 0.46990234375 -12.08326171875 12.08126953125c-4.5766796875 -2.38171875 -9.7015625 -2.18291015625 -12.806230468749998 0.91974609375 -0.8193164062499999 0.82283203125 -1.46111328125 1.805 -1.88568359375 2.88578125 -0.26638671875 0.59865234375 -0.8609375 0.9837304687499999 -1.51619140625 0.9819921875000001 -2.92994140625 0.0983984375 -5.47431640625 1.14869140625 -7.360019531250001 3.034375C1.116953125 26.048359375 0.09679687499999999 29.538593749999997 0.6470312500000001 33.448535156249996c0.5341796875 3.74126953125 2.47609375 7.4463671875 5.47431640625 10.42853515625s6.6953125 4.9321093750000005 10.44259765625 5.4662890625000005c0.67150390625 0.1003515625 1.34931640625 0.1526953125 2.02826171875 0.156640625 3.0765429687499997 0 5.789609375 -1.05029296875 7.78375 -3.0444140625 1.88568359375 -1.88568359375 2.9359765625 -4.43005859375 3.034375 -7.360019531250001 -0.0006835937500000001 -0.65666015625 0.38701171875 -1.2516015624999999 0.98802734375 -1.5161718750000002 1.081171875 -0.42380859375 2.0634765625 -1.065703125 2.88576171875 -1.885703125 3.10265625 -3.1046484375 3.3014648437500003 -8.23357421875 0.91974609375 -12.806210937500001l12.08126953125 -12.083281249999999 0.46992187500000004 0.46992187500000004c0.8741992187500001 0.8749804687499999 2.3677929687500003 0.47548828125 2.6884375 -0.7191015625 0.14880859375 -0.5543945312499999 -0.009453125 -1.14607421875 -0.41517578125000004 -1.55216796875Zm-18.00541015625 24.417578125c-0.5120703125 0.50990234375 -1.123984375 0.9084960937500001 -1.7973437500000002 1.1707812499999999 -1.788203125 0.73677734375 -2.970625 2.4623046874999996 -3.01228515625 4.39591796875 -0.07228515625 2.10056640625 -0.8032617187500001 3.897890625 -2.09453125 5.1971875 -1.6949218750000001 1.69291015625 -4.21720703125 2.3997851562499997 -7.100957031250001 1.9861132812500002 -3.0644921875 -0.43578124999999995 -6.130996093749999 -2.05439453125 -8.633203125 -4.55658203125s-4.120800781250001 -5.568710937500001 -4.55658203125 -8.61916015625c-0.401640625 -2.88576171875 0.29318359375 -5.40603515625 1.9860937499999998 -7.100957031250001 1.299296875 -1.2952734375000001 3.09662109375 -2.0242578125 5.1971875 -2.0985546875 1.9339453125 -0.040625 3.66 -1.22337890625 4.3959375000000005 -3.01228515625 0.2610546875 -0.67693359375 0.65970703125 -1.29236328125 1.17076171875 -1.80736328125 1.1025 -1.1025 2.61064453125 -1.63265625 4.293515625 -1.63265625 1.3238867187499999 0.02119140625 2.63013671875 0.30728515624999997 3.84166015625 0.8414257812499999l-4.03244140625 4.04248046875c-4.917167968749999 0.54140625 -7.40431640625 6.20279296875 -4.47685546875 10.19048828125 2.9274609375 3.9876953125000005 9.0739453125 3.3109375000000005 11.06365234375 -1.2181640625 0.26265625 -0.597890625 0.43265624999999996 -1.2323046875 0.50412109375 -1.88140625l4.03244140625 -4.03244140625c1.3093359375 3.07052734375 1.12056640625 6.223378906250001 -0.7811914062499999 8.13517578125Zm-2.0885351562500003 -12.34634765625c0.424453125 0.42693359375000006 0.8221679687500001 0.87962890625 1.190859375 1.35552734375l-3.09662109375 3.09662109375c-0.5907421875 -1.07265625 -1.47373046875 -1.95564453125 -2.54638671875 -2.54638671875l3.09662109375 -3.0986328125c0.47248046874999994 0.3697265625 0.9218359375 0.7680859375 1.34548828125 1.19287109375Zm-7.550781249999999 4.3276562499999995c1.7744921875 0.000078125 3.2131054687500002 1.43859375 3.2131054687500002 3.2130859375000003 0 2.4734570312499997 -2.67759765625 4.01935546875 -4.8196484375 2.78263671875 -2.1420703125 -1.2367187499999999 -2.1420703125 -4.32853515625 0 -5.56525390625 0.48849609375 -0.28203125 1.04248046875 -0.43050781250000003 1.6065429687500001 -0.43046875Zm9.81 -6.596914062500001c-0.42609375 -0.42447265624999997 -0.8738476562499999 -0.826640625 -1.3414648437499999 -1.2049023437500002l4.3838671875 -4.3858984375 2.5483984375 2.5483984375 -4.3838671875 4.381875c-0.37828125 -0.46761718750000003 -0.78044921875 -0.91537109375 -1.204921875 -1.341484375Zm7.862070312499999 -5.3156640625L36.50927734375 10.9427734375l4.956210937500001 -4.958222656249999 2.5483984375 2.5483984375ZM17.70056640625 38.72205078125c0.8749804687499999 0.8741992187500001 0.47548828125 2.3677734375 -0.71908203125 2.6884375 -0.5544140625 0.14880859375 -1.1460937500000001 -0.009453125 -1.55216796875 -0.41517578125000004l-6.4262109375000005 -6.426191406249999c-0.8741992187500001 -0.8749804687499999 -0.4733984375 -2.368203125 0.7214648437500001 -2.6878124999999997 0.55453125 -0.1483203125 1.1460937500000001 0.01046875 1.551796875 0.41654296874999996Z" stroke-width="0.1953"></path>
</svg>