<svg viewBox="-1.565 -1.565 50 50" fill="none" xmlns="http://www.w3.org/2000/svg" id="Profile-Circle--Streamline-Iconoir" height="50" width="50">
  <desc>
    Profile Circle Streamline Icon: https://streamlinehq.com
  </desc>
  <path d="M23.435000000000002 2.071068125C11.636063375000003 2.071068125 2.071068125 11.636063375000003 2.071068125 23.435000000000002c0 11.798936625 9.56499525 21.363931875000002 21.363931875000002 21.363931875000002 11.798936625 0 21.363931875000002 -9.56499525 21.363931875000002 -21.363931875000002 0 -11.798936625 -9.56499525 -21.363931875000002 -21.363931875000002 -21.363931875000002Z" stroke="#000000" stroke-linecap="round" stroke-linejoin="round" stroke-width="3.13"></path>
  <path d="M6.922699000000001 36.99195220833334S11.684886291666668 30.912327333333334 23.435000000000002 30.912327333333334s16.512496291666668 6.079624875000001 16.512496291666668 6.079624875000001" stroke="#000000" stroke-linecap="round" stroke-linejoin="round" stroke-width="3.13"></path>
  <path d="M23.435000000000002 23.435000000000002c3.53985675 0 6.409277208333334 -2.869420458333334 6.409277208333334 -6.409277208333334 0 -3.5396614583333337 -2.869420458333334 -6.4090819166666675 -6.409277208333334 -6.4090819166666675S17.025722791666666 13.486061333333334 17.025722791666666 17.025722791666666C17.025722791666666 20.56557954166667 19.895143250000004 23.435000000000002 23.435000000000002 23.435000000000002Z" stroke="#000000" stroke-linecap="round" stroke-linejoin="round" stroke-width="3.13"></path>
</svg>