<svg viewBox="0 0 50 50" fill="none" xmlns="http://www.w3.org/2000/svg" id="Update--Streamline-Radix" height="50" width="50">
  <desc>
    Update Streamline Icon: https://streamlinehq.com
  </desc>
  <path fill-rule="evenodd" clip-rule="evenodd" d="M6.344033333333334 24.32256666666667c0 10.147433333333334 7.357333333333333 17.05976666666667 15.619066666666667 18.490433333333335 0.9454 0.16366666666666665 1.5791 1.0626666666666666 1.4154 2.0083333333333337 -0.1637 0.9453333333333335 -1.0628000000000002 1.5790000000000002 -2.0082 1.4153333333333333C11.664733333333334 44.556 2.869466666666667 36.37566666666667 2.869466666666667 24.32256666666667c-0.00000333333333333333 -5.122266666666667 2.3304 -9.147733333333335 5.051833333333334 -12.209999999999999 1.9495 -2.193633333333333 4.179833333333333 -3.9747333333333335 5.973566666666667 -5.339166666666667l-5.4547 0c-0.9204666666666667 0 -1.6666666666666667 -0.7462000000000001 -1.6666666666666667 -1.6666666666666667s0.7462000000000001 -1.6666666666666667 1.6666666666666667 -1.6666666666666667l10 0c0.9204666666666667 0 1.6666666666666667 0.7462000000000001 1.6666666666666667 1.6666666666666667l0 10c0 0.9204666666666667 -0.7462000000000001 1.6666666666666667 -1.6666666666666667 1.6666666666666667s-1.6666666666666667 -0.7462000000000001 -1.6666666666666667 -1.6666666666666667l0 -6.1519 -0.005033333333333334 0.0038 -0.00030000000000000003 0.00023333333333333333 -0.00003333333333333333 0.00003333333333333333 -0.00003333333333333333 0c-1.9049000000000003 1.4367 -4.2328 3.1923666666666666 -6.249633333333334 5.461766666666667 -2.3817333333333335 2.6800333333333333 -4.174433333333333 5.9178 -4.174433333333333 9.9019Zm37.02563333333333 1.3548000000000002c0 -10.0402 -7.201333333333334 -16.912033333333337 -15.356866666666667 -18.443066666666667 -0.9430333333333334 -0.17703333333333332 -1.5639666666666667 -1.0850000000000002 -1.3869333333333334 -2.0280333333333336 0.17703333333333332 -0.943 1.0850000000000002 -1.5639333333333334 2.0280000000000005 -1.3869 9.5808 1.7986666666666666 18.190133333333335 9.934133333333333 18.190133333333335 21.858 0 5.122233333333334 -2.330333333333334 9.147633333333333 -5.051666666666667 12.209966666666668 -1.9496666666666667 2.1936666666666667 -4.180000000000001 3.9746666666666663 -5.973666666666667 5.339333333333333l5.455 0c0.9203333333333334 0 1.6666666666666667 0.746 1.6666666666666667 1.6666666666666667 0 0.9203333333333334 -0.7463333333333333 1.6666666666666667 -1.6666666666666667 1.6666666666666667l-10.000166666666667 0c-0.9204666666666667 0 -1.6666666666666667 -0.7463333333333333 -1.6666666666666667 -1.6666666666666667l0 -10c0 -0.9206666666666667 0.7462000000000001 -1.6668000000000003 1.6666666666666667 -1.6668000000000003s1.6666666666666667 0.7461333333333334 1.6666666666666667 1.6668000000000003l0 6.151666666666666 0.005233333333333334 -0.004c1.9049333333333334 -1.4366666666666668 4.232933333333333 -3.1923333333333335 6.249600000000001 -5.461666666666667 2.382 -2.6801333333333335 4.174666666666667 -5.917866666666667 4.174666666666667 -9.901966666666667Z" fill="#12da00" stroke-width="3.3333"></path>
</svg>